<?xml version="1.0" encoding="utf-8"?>
<!-- Generator: Adobe Illustrator 25.0.1, SVG Export Plug-In . SVG Version: 6.00 Build 0)  -->
<svg version="1.1" id="Layer_1" xmlns="http://www.w3.org/2000/svg" xmlns:xlink="http://www.w3.org/1999/xlink" x="0px" y="0px"
	 viewBox="0 0 381 77" style="enable-background:new 0 0 381 77;" xml:space="preserve">
<style type="text/css">
	.st0{fill:none;}
	.st1{fill:none;stroke:#32394B;}
	.st2{fill:none;stroke:#32394B;stroke-width:1.1925;}
</style>
<line class="st0" x1="0.1" y1="58.4" x2="0.1" y2="18.6"/>
<path class="st1" d="M0.1,57.8"/>
<g>
	<path class="st0" d="M190.5,38.5"/>
	<path class="st2" d="M95.3,61.6h-33c-2.5,0-4.6-1.9-4.8-4.5c-1.7-24.6-3.7-47.3-6-40.7c-3.9,11.3-5.9,45.1-15.4,45.1h-36"/>
	<path class="st2" d="M190.5,61.6h-33c-2.5,0-4.6-1.9-4.8-4.5c-1.7-24.6-3.7-47.3-6-40.7c-3.9,11.3-5.9,45.1-15.4,45.1h-36"/>
	<path class="st2" d="M285.7,61.6h-33c-2.5,0-4.6-1.9-4.8-4.5c-1.7-24.6-3.7-47.3-6-40.7c-3.9,11.3-5.9,45.1-15.4,45.1h-36"/>
	<path class="st2" d="M380.9,61.6h-33c-2.5,0-4.6-1.9-4.8-4.5c-1.7-24.6-3.7-47.3-6-40.7c-3.9,11.3-5.9,45.1-15.4,45.1h-36"/>
</g>
</svg>
