<svg xmlns="http://www.w3.org/2000/svg" xmlns:xlink="http://www.w3.org/1999/xlink" width="380.746" height="77.124" viewBox="0 0 380.746 77.124">
  <defs>
    <clipPath id="clip-path">
      <rect width="85.153" height="76.913" fill="none"/>
    </clipPath>
  </defs>
  <g id="Group_2246" data-name="Group 2246" transform="translate(0 -621.762)">
    <path id="Path_1297" data-name="Path 1297" d="M1680,2721.185h31.988c8,0,9.7-28.379,12.932-37.838s5.748,53.524,7.663,71.366,7.663-33.528,7.663-33.528h24.906" transform="translate(-1680 -2060.103)" fill="none" stroke="#32394b" stroke-width="1"/>
    <path id="Path_1298" data-name="Path 1298" d="M1680,2721.185h31.988c8,0,9.7-28.379,12.932-37.838s5.748,53.524,7.663,71.366,7.663-33.528,7.663-33.528h24.906" transform="translate(-1680 -2060.103)" fill="none" stroke="#32394b" stroke-width="1"/>
    <g id="Component_7_31" data-name="Component 7 – 31" transform="translate(0 621.865)" clip-path="url(#clip-path)">
      <path id="Path_1299" data-name="Path 1299" d="M1680,2721.185h31.988c8,0,9.7-28.379,12.932-37.838s5.748,53.524,7.663,71.366,7.663-33.528,7.663-33.528h24.906" transform="translate(-1680 -2681.968)" fill="none" stroke="#32394b" stroke-width="1"/>
      <path id="Path_1300" data-name="Path 1300" d="M1680,2721.185h31.988c8,0,9.7-28.379,12.932-37.838s5.748,53.524,7.663,71.366,7.663-33.528,7.663-33.528h24.906" transform="translate(-1680 -2681.968)" fill="none" stroke="#32394b" stroke-width="1"/>
    </g>
    <g id="Component_7_32" data-name="Component 7 – 32" transform="translate(85.017 621.974)" clip-path="url(#clip-path)">
      <path id="Path_1299-2" data-name="Path 1299" d="M1680,2721.185h31.988c8,0,9.7-28.379,12.932-37.838s5.748,53.524,7.663,71.366,7.663-33.528,7.663-33.528h24.906" transform="translate(-1680 -2681.968)" fill="none" stroke="#32394b" stroke-width="1"/>
      <path id="Path_1300-2" data-name="Path 1300" d="M1680,2721.185h31.988c8,0,9.7-28.379,12.932-37.838s5.748,53.524,7.663,71.366,7.663-33.528,7.663-33.528h24.906" transform="translate(-1680 -2681.968)" fill="none" stroke="#32394b" stroke-width="1"/>
    </g>
    <g id="Component_7_33" data-name="Component 7 – 33" transform="translate(147.576 621.974)" clip-path="url(#clip-path)">
      <path id="Path_1299-3" data-name="Path 1299" d="M1680,2721.185h31.988c8,0,9.7-28.379,12.932-37.838s5.748,53.524,7.663,71.366,7.663-33.528,7.663-33.528h24.906" transform="translate(-1680 -2681.968)" fill="none" stroke="#32394b" stroke-width="1"/>
      <path id="Path_1300-3" data-name="Path 1300" d="M1680,2721.185h31.988c8,0,9.7-28.379,12.932-37.838s5.748,53.524,7.663,71.366,7.663-33.528,7.663-33.528h24.906" transform="translate(-1680 -2681.968)" fill="none" stroke="#32394b" stroke-width="1"/>
    </g>
    <g id="Component_7_34" data-name="Component 7 – 34" transform="translate(232.593 621.974)" clip-path="url(#clip-path)">
      <path id="Path_1299-4" data-name="Path 1299" d="M1680,2721.185h31.988c8,0,9.7-28.379,12.932-37.838s5.748,53.524,7.663,71.366,7.663-33.528,7.663-33.528h24.906" transform="translate(-1680 -2681.968)" fill="none" stroke="#32394b" stroke-width="1"/>
      <path id="Path_1300-4" data-name="Path 1300" d="M1680,2721.185h31.988c8,0,9.7-28.379,12.932-37.838s5.748,53.524,7.663,71.366,7.663-33.528,7.663-33.528h24.906" transform="translate(-1680 -2681.968)" fill="none" stroke="#32394b" stroke-width="1"/>
    </g>
    <g id="Component_7_35" data-name="Component 7 – 35" transform="translate(295.593 621.974)" clip-path="url(#clip-path)">
      <path id="Path_1299-5" data-name="Path 1299" d="M1680,2721.185h31.988c8,0,9.7-28.379,12.932-37.838s5.748,53.524,7.663,71.366,7.663-33.528,7.663-33.528h24.906" transform="translate(-1680 -2681.968)" fill="none" stroke="#32394b" stroke-width="1"/>
      <path id="Path_1300-5" data-name="Path 1300" d="M1680,2721.185h31.988c8,0,9.7-28.379,12.932-37.838s5.748,53.524,7.663,71.366,7.663-33.528,7.663-33.528h24.906" transform="translate(-1680 -2681.968)" fill="none" stroke="#32394b" stroke-width="1"/>
    </g>
  </g>
</svg>
