<svg height="512pt" viewBox="0 -12 512 512" width="512pt" xmlns="http://www.w3.org/2000/svg"><path d="m193.910156 114.457031c-17.160156-18.125-44.996094-20.972656-65.480468-6.71875-7.738282 5.386719-15.105469 11.113281-22.105469 17.078125-68.003907 57.953125-106.324219 143.457032-106.324219 232.808594v54.199219c0 18.140625 5.011719 35.925781 14.484375 51.394531 9.167969 14.980469 25.464844 24.109375 43.027344 24.109375h91.527343c15.457032 0 30.058594-7.082031 39.625-19.21875 21.042969-26.699219 32.484376-59.703125 32.484376-93.695313v-211.09375c.003906-23.320312-13.472657-34.324218-27.238282-48.863281zm0 0" fill="#ff8088"/><path d="m45.902344 463.21875c-9.46875-15.46875-14.480469-33.253906-14.480469-51.394531v-54.199219c0-89.351562 38.316406-174.855469 106.324219-232.808594 6.996094-5.964844 14.363281-11.691406 22.105468-17.078125 4.128907-2.871093 8.558594-5.039062 13.136719-6.535156-14.636719-4.789063-31.167969-2.78125-44.558593 6.535156-7.738282 5.386719-15.105469 11.113281-22.105469 17.078125-68.003907 57.953125-106.324219 143.457032-106.324219 232.808594v54.199219c0 18.140625 5.011719 35.925781 14.484375 51.394531 9.167969 14.980469 25.464844 24.109375 43.027344 24.109375h31.421875c-17.5625 0-33.859375-9.128906-43.03125-24.109375zm0 0" fill="#ff646f"/><path d="m405.675781 124.816406c-6.996093-5.964844-14.363281-11.691406-22.105469-17.078125-20.484374-14.257812-48.320312-11.40625-65.480468 6.714844-13.765625 14.542969-27.238282 25.546875-27.238282 48.867187v211.09375c0 33.992188 11.441407 66.996094 32.484376 93.695313 9.566406 12.136719 24.171874 19.21875 39.625 19.21875h91.527343c17.5625 0 33.859375-9.128906 43.03125-24.109375 9.46875-15.46875 14.480469-33.253906 14.480469-51.394531v-54.199219c0-89.351562-38.320312-174.855469-106.324219-232.808594zm0 0" fill="#ff8088"/><path d="m354.757812 468.109375c-21.042968-26.699219-32.488281-59.703125-32.488281-93.695313v-211.09375c0-23.316406 13.476563-34.324218 27.242188-48.863281 5.941406-6.277343 13.167969-10.71875 20.921875-13.253906-18.136719-5.9375-38.640625-1.21875-52.34375 13.253906-13.765625 14.539063-27.238282 25.546875-27.238282 48.863281v211.09375c0 33.992188 11.441407 66.996094 32.484376 93.695313 9.566406 12.136719 24.171874 19.21875 39.625 19.21875h31.421874c-15.457031 0-30.058593-7.082031-39.625-19.21875zm0 0" fill="#ff646f"/><path d="m343.367188 263.546875-64.742188-49.941406c-4.066406-3.136719-6.445312-7.976563-6.445312-13.109375v-183.859375c0-8.714844-6.695313-16.210938-15.398438-16.6171878-9.289062-.4375002-16.960938 6.9648438-16.960938 16.1601568v184.316406c0 5.132812-2.378906 9.972656-6.441406 13.109375l-64.746094 49.941406c-7.074218 5.457031-8.386718 15.617187-2.929687 22.691406 5.457031 7.078125 15.621094 8.386719 22.695313 2.929688l63.378906-48.890625c2.488281-1.917969 5.957031-1.917969 8.445312 0l63.382813 48.890625c7.078125 5.460937 17.238281 4.144531 22.691406-2.929688 5.457031-7.074219 4.144531-17.234375-2.929687-22.691406zm0 0" fill="#ffe55a"/><path d="m187.679688 286.238281c-5.457032-7.074219-4.144532-17.234375 2.929687-22.691406l64.742187-49.941406c4.066407-3.136719 6.445313-7.976563 6.445313-13.109375v-184.316406c0-4.652344 1.96875-8.84375 5.113281-11.792969-2.679687-2.539063-6.195312-4.183594-10.128906-4.3671878-9.292969-.4375002-16.960938 6.9648438-16.960938 16.1601568v184.316406c0 5.132812-2.382812 9.972656-6.445312 13.109375l-64.742188 49.941406c-7.074218 5.457031-8.386718 15.617187-2.929687 22.691406 5.457031 7.078125 15.617187 8.386719 22.691406 2.929688l1.167969-.898438c-.667969-.617187-1.304688-1.285156-1.882812-2.03125zm0 0" fill="#ffd500"/><g fill="#ff4755"><path d="m461.730469 188.4375-25.929688 35.792969c-.957031 1.316406-1.472656 2.90625-1.472656 4.53125v6.464843h-19.238281c-4.265625 0-7.726563 3.460938-7.726563 7.726563 0 4.269531 3.460938 7.726563 7.726563 7.726563h19.238281v10.292968l-12.398437 18.921875c-2.339844 3.570313-1.339844 8.359375 2.226562 10.699219 3.574219 2.339844 8.363281 1.335938 10.699219-2.226562l13.660156-20.855469c.824219-1.257813 1.265625-2.730469 1.265625-4.234375v-32.011719l20.726562-28.605469c-2.792968-4.816406-5.71875-9.558594-8.777343-14.222656zm0 0"/><path d="m501.316406 276.78125-17.574218 28.746094h-17.855469c-4.269531 0-7.726563 3.460937-7.726563 7.726562s3.457032 7.726563 7.726563 7.726563h22.191406c2.691406 0 5.1875-1.398438 6.59375-3.695313l11.613281-19.003906c-1.40625-7.234375-3.0625-14.40625-4.96875-21.5zm0 0"/><path d="m63.480469 267.511719 13.664062 20.855469c2.339844 3.566406 7.125 4.566406 10.699219 2.226562 3.566406-2.339844 4.566406-7.128906 2.226562-10.695312l-12.398437-18.925782v-10.292968h19.238281c4.265625 0 7.726563-3.457032 7.726563-7.722657 0-4.269531-3.460938-7.726562-7.726563-7.726562h-19.238281v-6.464844c0-1.628906-.515625-3.214844-1.46875-4.535156l-25.929687-35.789063c-3.058594 4.660156-5.988282 9.402344-8.78125 14.222656l20.726562 28.605469v32.011719c0 1.503906.4375 2.972656 1.261719 4.230469zm0 0"/><path d="m17.332031 317.285156c1.402344 2.296875 3.898438 3.699219 6.59375 3.699219h22.191407c4.265624 0 7.726562-3.460937 7.726562-7.726563 0-4.269531-3.460938-7.726562-7.726562-7.726562h-17.859376l-17.574218-28.75c-1.90625 7.09375-3.5625 14.265625-4.96875 21.503906zm0 0"/></g><path d="m460.816406 430.730469c-23.765625-.785157-49.109375-5.410157-66.078125-22.074219-9.695312-9.527344-15.9375-22.351562-26.601562-30.785156-11.78125-9.316406-27.4375-12.050782-42.441407-12.820313-11.605468-.59375-23.351562-.21875-34.847656-1.597656v10.960937c0 33.992188 11.445313 66.996094 32.488282 93.695313 9.566406 12.136719 24.167968 19.21875 39.625 19.21875h91.527343c17.5625 0 33.859375-9.128906 43.027344-24.105469 5.941406-9.703125 10.125-20.316406 12.421875-31.359375-16.210938-1.453125-32.78125-.59375-49.121094-1.132812zm0 0" fill="#ff646f"/><path d="m394.378906 487.328125c-15.453125 0-30.058594-7.082031-39.621094-19.21875-21.042968-26.699219-32.488281-59.703125-32.488281-93.695313v-9.503906c-10.488281-.390625-21.054687-.214844-31.421875-1.460937v10.964843c0 33.476563 11.160156 66.632813 32.488282 93.695313 9.589843 12.167969 24.304687 19.21875 39.621093 19.21875zm0 0" fill="#ff4755"/><path d="m51.183594 430.730469c23.765625-.785157 49.109375-5.410157 66.078125-22.074219 9.695312-9.527344 15.9375-22.351562 26.601562-30.785156 11.78125-9.316406 27.4375-12.050782 42.441407-12.820313 11.605468-.59375 23.351562-.21875 34.847656-1.597656v10.960937c0 33.992188-11.445313 66.996094-32.488282 93.695313-9.566406 12.136719-24.167968 19.21875-39.625 19.21875h-91.527343c-17.5625 0-33.859375-9.128906-43.027344-24.105469-5.941406-9.703125-10.125-20.316406-12.421875-31.359375 16.210938-1.453125 32.78125-.59375 49.121094-1.132812zm0 0" fill="#ff646f"/><path d="m88.933594 487.328125c-17.5625 0-33.859375-9.128906-43.027344-24.109375-6.105469-9.96875-10.347656-20.90625-12.597656-32.277344-10.457032.007813-20.921875-.003906-31.246094.921875 4.496094 21.609375 15.191406 42.65625 35.640625 51.390625 6.171875 2.636719 12.886719 4.074219 19.808594 4.074219zm0 0" fill="#ff4755"/></svg>