<svg id="Capa_1" enable-background="new 0 0 512 512" height="512" viewBox="0 0 512 512" width="512" xmlns="http://www.w3.org/2000/svg"><circle cx="256" cy="256" fill="#ff873c" r="256"/><path d="m311.2 506.034c39.126-8.599 74.898-26.147 105.06-50.391l-235.575-235.575-8.378 9.917-24.564-24.564-80.577 56.579z" fill="#e56022"/><path d="m423.073 171.273-10.164 13.22-34.929-34.929-13.383 31.386-57.466-57.466-99.347 87.361 227.698 227.698c46.31-45.538 75.37-108.563 76.484-178.376z" fill="#e56022"/><path d="m508.058 301h-504.116c21.266 119.926 126.026 211 252.058 211s230.792-91.074 252.058-211z" fill="#ffce00"/><path d="m255.573 511.999c.142 0 .285.001.427.001 126.032 0 230.792-91.074 252.058-211h-252.485z" fill="#fdba12"/><ellipse cx="256" cy="165.51" fill="#ffce00" rx="66.185" ry="66.185" transform="matrix(.954 -.299 .299 .954 -37.737 83.972)"/><path d="m256 99.325c-.136 0-.269.01-.405.01v132.35c.135.001.269.01.405.01 36.553 0 66.185-29.632 66.185-66.185s-29.632-66.185-66.185-66.185z" fill="#fdba12"/><path d="m395.101 232.928c20.533 0 37.179-16.645 37.179-37.179 0-20.533-16.645-37.179-37.179-37.179-3.176 0-6.259.399-9.201 1.148-7.474-13.234-21.67-22.168-37.952-22.168-16.283 0-30.478 8.935-37.952 22.168-2.943-.749-6.025-1.148-9.201-1.148-20.533 0-37.179 16.645-37.179 37.179 0 20.533 16.645 37.179 37.179 37.179z" fill="#e9edf5"/><path d="m160.777 270.105c16.007 0 28.984-12.976 28.984-28.983s-12.976-28.983-28.984-28.983c-2.476 0-4.879.311-7.173.895-5.827-10.317-16.893-17.282-29.587-17.282s-23.76 6.965-29.587 17.282c-2.294-.584-4.697-.895-7.173-.895-16.007 0-28.984 12.976-28.984 28.983s12.976 28.983 28.984 28.983z" fill="#fff"/><path d="m126.847 477.08c37.913 22.197 82.047 34.92 129.153 34.92s91.24-12.723 129.153-34.92l-58.772-176.08h-140.762z" fill="#636978"/><path d="m255.595 511.999c.135 0 .27.001.405.001 47.106 0 91.24-12.723 129.153-34.92l-58.772-176.08h-70.786z" fill="#414952"/><path d="m234.122 413-4.622 79.551h53l-4.622-79.551z" fill="#f2f6fc"/><path d="m276.326 386.297-3.826-65.848h-33l-3.826 65.848z" fill="#f2f6fc"/><g fill="#dce1eb"><path d="m277.878 413h-22.283v79.551h26.905z"/><path d="m272.5 320.449h-16.905v65.848h20.731z"/></g></svg>