<svg height="512" viewBox="0 0 64 64" width="512" xmlns="http://www.w3.org/2000/svg" xmlns:xlink="http://www.w3.org/1999/xlink"><linearGradient id="linear-gradient" gradientUnits="userSpaceOnUse" x1="33.16" x2="42.1" y1="9.3" y2="9.3"><stop offset="0" stop-color="#d3e6f5"/><stop offset="1" stop-color="#f0f7fc"/></linearGradient><linearGradient id="linear-gradient-2" x1="45.8" x2="51.47" xlink:href="#linear-gradient" y1="12.28" y2="12.28"/><linearGradient id="linear-gradient-3" x1="52.7" x2="58.59" xlink:href="#linear-gradient" y1="21.29" y2="21.29"/><linearGradient id="linear-gradient-4" x1="54.72" x2="62.87" xlink:href="#linear-gradient" y1="33.95" y2="33.95"/><linearGradient id="linear-gradient-5" x1="49.84" x2="60.15" xlink:href="#linear-gradient" y1="45.29" y2="45.29"/><linearGradient id="linear-gradient-6" x1="41.96" x2="53.19" xlink:href="#linear-gradient" y1="53.59" y2="53.59"/><linearGradient id="linear-gradient-7" x1="21.88" x2="30.84" xlink:href="#linear-gradient" y1="9.29" y2="9.29"/><linearGradient id="linear-gradient-8" x1="12.53" x2="18.2" xlink:href="#linear-gradient" y1="12.28" y2="12.28"/><linearGradient id="linear-gradient-9" x1="5.43" x2="11.32" xlink:href="#linear-gradient" y1="21.27" y2="21.27"/><linearGradient id="linear-gradient-10" x1="1.15" x2="9.28" xlink:href="#linear-gradient" y1="33.95" y2="33.95"/><linearGradient id="linear-gradient-11" x1="3.84" x2="14.11" xlink:href="#linear-gradient" y1="45.34" y2="45.34"/><linearGradient id="linear-gradient-12" x1="10.8" x2="22.04" xlink:href="#linear-gradient" y1="53.59" y2="53.59"/><linearGradient id="linear-gradient-13" gradientUnits="userSpaceOnUse" x1="23.87" x2="40.13" y1="44.24" y2="27.99"><stop offset="0" stop-color="#fe9661"/><stop offset="1" stop-color="#ffb369"/></linearGradient><g id="all_inclusive" data-name="all inclusive"><path d="m41.57 13.23c-1.5.75-7.66-.85-8.41-6.92a1 1 0 0 1 .84-1.11c4.47 0 7.37 2.8 8.07 7a.41.41 0 0 1 0 .11 1 1 0 0 1 -.5.92z" fill="url(#linear-gradient)"/><path d="m49.65 17.51s0 0-.07.06 0 .07-.07.1a1 1 0 0 1 -1.41-.09 7.86 7.86 0 0 1 -.45-10.58s0 0 .05 0a1 1 0 0 1 1.39-.06h.06a7.88 7.88 0 0 1 .5 10.57z" fill="url(#linear-gradient-2)"/><path d="m55.17 26.59a1.2 1.2 0 0 1 -.17.11 1 1 0 0 1 -1.23-.29c-2.2-4.41-.77-8.25 2.36-10.48a1 1 0 0 1 1.29.15c.58.4 3.31 6.22-2.25 10.51z" fill="url(#linear-gradient-3)"/><path d="m55.89 38.43a1 1 0 0 1 -1.17-1 7.87 7.87 0 0 1 7-7.95 1 1 0 0 1 1.11.93 7.9 7.9 0 0 1 -6.94 8.02z" fill="url(#linear-gradient-4)"/><path d="m60.08 43.56a7.8 7.8 0 0 1 -9.42 4.83c-2.71 0 1.55-8 8.74-6.17.09.05.11 0 .12 0a1 1 0 0 1 .56 1.34z" fill="url(#linear-gradient-5)"/><path d="m52.93 53.88c-2.73 2.88-6.73 3.52-10.55.93 0 0 0-.05-.07-.08s-.11-.06-.24-.31a1.07 1.07 0 0 1 0-1l.07-.08s0-.06.06-.08a7.87 7.87 0 0 1 10.56-.87s0 0 0 0 .07.06.13.14a1 1 0 0 1 .04 1.35z" fill="url(#linear-gradient-6)"/><path d="m30.84 6.31a7.86 7.86 0 0 1 -7.91 7c-.35.17-1.19-.53-1-1.16.76-4.55 4-7 8-7a1 1 0 0 1 .91 1.16z" fill="url(#linear-gradient-7)"/><path d="m15.9 17.58a1 1 0 0 1 -1.14.25c-.38-.19-.24-.16-.34-.26s-.05 0-.07-.06a7.88 7.88 0 0 1 .5-10.58h.06a1.05 1.05 0 0 1 1.09-.2 3.75 3.75 0 0 1 .36.27 7.86 7.86 0 0 1 -.46 10.58z" fill="url(#linear-gradient-8)"/><path d="m10.34 26.23a1 1 0 0 1 -1.34.47s0 0-.07-.05c-3.22-2.15-4.6-6.18-2.48-10.42a1 1 0 0 1 1.31-.36h.06a7.87 7.87 0 0 1 2.52 10.36z" fill="url(#linear-gradient-9)"/><path d="m8.11 38.43a7.88 7.88 0 0 1 -7-8 1 1 0 0 1 1.07-1h.06a7.87 7.87 0 0 1 7 8 1 1 0 0 1 -1.13 1z" fill="url(#linear-gradient-10)"/><path d="m14 47.87c-.92 1.53-7.76 1.55-10.09-4.31a1 1 0 0 1 .56-1.3s0 0 .12 0c6.04-1.57 10.25 3.95 9.41 5.61z" fill="url(#linear-gradient-11)"/><path d="m21.83 54.59a8 8 0 0 1 -5 1.85 8.28 8.28 0 0 1 -5.83-2.65 1 1 0 0 1 -.17-.49 1.06 1.06 0 0 1 .38-.91 7.87 7.87 0 0 1 10.56.87 1 1 0 0 1 .06 1.33z" fill="url(#linear-gradient-12)"/><path d="m41.08 11.18a1 1 0 0 0 -.67 1.89 21.36 21.36 0 0 1 7 36.16 1.75 1.75 0 0 0 -.19.16 23.71 23.71 0 0 1 -13.28 5.33 1 1 0 0 0 .08 2 27.35 27.35 0 0 0 7.08-1.52 23.35 23.35 0 0 0 0-44z" fill="#b4cde1"/><path d="m30.08 54.72a23.85 23.85 0 0 1 -13.29-5.34c-12-9.36-9.3-30.64 6.8-36.31a1 1 0 0 0 -.67-1.89 23.35 23.35 0 0 0 -11.01 35.82 24.49 24.49 0 0 0 18 9.69 1 1 0 0 0 .17-1.97z" fill="#b4cde1"/><path d="m44.37 40h-24.74l1.18-8.68a1 1 0 0 1 1.82-.4l5.2 5.41 2.92-6.86a1.36 1.36 0 0 1 2.5 0l2.92 6.86 5.2-5.41a1 1 0 0 1 1.82.4z" fill="url(#linear-gradient-13)"/><path d="m48 43a3 3 0 0 1 -3 3h-26a3 3 0 0 1 0-6h26a3 3 0 0 1 3 3z" fill="#eb7f58"/><g fill="#ffb369"><path d="m34 20.59.26 1.48a.5.5 0 0 1 -.73.53c-1.33-.7-1.49-.86-1.79-.7l-1.33.7a.5.5 0 0 1 -.73-.53c.26-1.48.36-1.68.11-1.92l-1.07-1a.5.5 0 0 1 .27-.86c1.49-.21 1.71-.17 1.87-.49l.66-1.35a.5.5 0 0 1 .9 0c.66 1.35.69 1.58 1 1.63l1.49.21a.5.5 0 0 1 .27.86c-1 1-1.18 1.1-1.18 1.44z"/><path d="m24 24.59.26 1.48a.5.5 0 0 1 -.73.53c-1.33-.7-1.49-.86-1.79-.7l-1.33.7a.5.5 0 0 1 -.73-.53c.26-1.48.36-1.68.11-1.92l-1.07-1a.5.5 0 0 1 .27-.86c1.49-.21 1.71-.17 1.87-.49l.66-1.35a.5.5 0 0 1 .9 0c.66 1.35.69 1.58 1 1.63l1.49.21a.5.5 0 0 1 .27.86c-1 1-1.18 1.1-1.18 1.44z"/><path d="m44 24.59.26 1.48a.5.5 0 0 1 -.73.53c-1.33-.7-1.49-.86-1.79-.7l-1.33.7a.5.5 0 0 1 -.73-.53c.26-1.48.36-1.68.11-1.92l-1.07-1a.5.5 0 0 1 .27-.86c1.49-.21 1.71-.17 1.87-.49l.66-1.35a.5.5 0 0 1 .9 0c.66 1.35.69 1.58 1 1.63l1.49.21a.5.5 0 0 1 .27.86c-1 1-1.18 1.1-1.18 1.44z"/></g></g></svg>