<svg id="military-rank" xmlns="http://www.w3.org/2000/svg" width="31.359" height="42.786" viewBox="0 0 31.359 42.786">
  <g id="Group_2504" data-name="Group 2504">
    <path id="Path_1419" data-name="Path 1419" d="M18.375,1.747H49.734V34.215L34.011,44.533,18.375,34.215Z" transform="translate(-18.375 -1.747)" fill="#424242"/>
    <path id="Path_1420" data-name="Path 1420" d="M28.375,38.929V11.747H52.861V38.923L40.58,46.983Z" transform="translate(-24.938 -8.31)" fill="#5e8569"/>
    <path id="Path_1421" data-name="Path 1421" d="M38.375,71.426v4.815l8.774,5.789,8.839-5.8V71.415l-8.839,5.8Z" transform="translate(-31.502 -47.473)" fill="#424242"/>
    <path id="Path_1422" data-name="Path 1422" d="M38.375,47.407v4.815l8.774,5.789,8.839-5.8V47.4l-8.839,5.8Z" transform="translate(-31.502 -31.708)" fill="#424242"/>
    <path id="Path_1423" data-name="Path 1423" d="M53.892,28.108l-3.271,1.72.625-3.642L48.6,23.606l3.657-.531,1.635-3.314,1.635,3.314,3.657.531-2.647,2.58.625,3.642Z" transform="translate(-38.213 -13.57)" fill="#fbb540"/>
  </g>
</svg>
