<svg xmlns="http://www.w3.org/2000/svg" xmlns:xlink="http://www.w3.org/1999/xlink" width="49.059" height="42.079" viewBox="0 0 49.059 42.079">
  <defs>
    <linearGradient id="linear-gradient" x1="0.5" x2="0.5" y2="1" gradientUnits="objectBoundingBox">
      <stop offset="0" stop-color="#ff5b7f"/>
      <stop offset="1" stop-color="#b11918"/>
    </linearGradient>
  </defs>
  <g id="Group_2361" data-name="Group 2361" transform="translate(-13.941 -18.482)">
    <path id="Path_1" data-name="Path 1" d="M161.035,162.718c-.128-7.525-6.233-14.23-13.773-14.23a13.544,13.544,0,0,0-10.732,5.63,13.546,13.546,0,0,0-10.732-5.63c-7.54,0-13.644,6.706-13.773,14.23H112c0,.046.01.089.01.135s-.01.067-.01.1c0,.211.052.371.061.574.675,19.175,24.275,27.037,24.275,27.037s23.946-7.852,24.655-27.007c.012-.214.068-.383.068-.6,0-.037-.01-.071-.01-.1,0-.049.01-.089.01-.135Z" transform="translate(-98.059 -130.006)" fill="url(#linear-gradient)"/>
  </g>
</svg>
