<svg xmlns="http://www.w3.org/2000/svg" width="30.447" height="30.447" viewBox="0 0 30.447 30.447">
  <path id="star_3_" data-name="star (3)" d="M29.785,14.845a2.334,2.334,0,0,0,.552-2.336,2.2,2.2,0,0,0-1.763-1.551L21.2,9.839a.967.967,0,0,1-.725-.55l-3.3-6.972a2.144,2.144,0,0,0-3.916,0L9.969,9.29a.968.968,0,0,1-.726.55L1.871,10.958A2.2,2.2,0,0,0,.108,12.51,2.334,2.334,0,0,0,.66,14.846l5.334,5.427a1.035,1.035,0,0,1,.278.891L5.014,28.826a2.3,2.3,0,0,0,.476,1.848,2.143,2.143,0,0,0,2.692.554l6.593-3.618a.95.95,0,0,1,.9,0l6.593,3.618a2.089,2.089,0,0,0,1.016.265,2.154,2.154,0,0,0,1.675-.82,2.3,2.3,0,0,0,.476-1.848l-1.259-7.663a1.035,1.035,0,0,1,.278-.891Z" transform="translate(0.001 -1.047)" fill="#e1e4e6"/>
</svg>
